<?xml version="1.0" standalone="no"?>
<!DOCTYPE svg PUBLIC "-//W3C//DTD SVG 20010904//EN"
 "http://www.w3.org/TR/2001/REC-SVG-20010904/DTD/svg10.dtd">
<svg version="1.0" xmlns="http://www.w3.org/2000/svg"
 width="700.000000pt" height="700.000000pt" viewBox="0 0 700.000000 700.000000"
 preserveAspectRatio="xMidYMid meet">
<metadata>
Created by potrace 1.14, written by Peter Selinger 2001-2017
</metadata>
<g transform="translate(0.000000,700.000000) scale(0.100000,-0.100000)"
fill="#000000" stroke="none">
<path d="M4484 6349 c-211 -28 -474 -199 -572 -372 -72 -125 -83 -283 -27
-386 58 -106 204 -207 344 -237 280 -59 584 73 698 303 32 65 37 86 41 162 5
101 -10 166 -63 271 -99 196 -240 284 -421 259z"/>
<path d="M2869 6089 c-149 -21 -375 -153 -468 -272 -65 -85 -94 -159 -99 -253
-6 -117 14 -172 92 -250 71 -71 159 -117 261 -139 90 -19 148 -19 243 1 200
41 362 171 412 331 35 115 21 226 -45 352 -93 177 -226 254 -396 230z"/>
<path d="M3765 4578 c-610 -41 -1286 -521 -1564 -1110 -88 -186 -127 -331
-156 -575 -17 -148 -20 -421 -5 -543 76 -610 405 -1048 914 -1214 329 -108
786 -100 1143 19 303 101 520 270 629 490 75 150 70 245 -12 245 -59 0 -114
-37 -237 -161 -181 -182 -295 -254 -453 -286 -265 -54 -533 125 -695 464 -22
47 -38 91 -36 98 3 7 18 16 34 19 15 4 82 33 148 65 483 231 889 626 1104
1071 109 226 151 394 151 601 0 236 -61 401 -209 561 -179 194 -428 278 -756
256z m64 -376 c81 -60 122 -239 103 -445 -39 -414 -220 -835 -490 -1142 -83
-95 -228 -222 -240 -210 -16 15 -14 407 3 539 63 497 192 927 344 1143 55 78
101 118 158 138 46 16 77 10 122 -23z"/>
</g>
</svg>
